<svg xmlns="http://www.w3.org/2000/svg" width="62.87" height="63" viewBox="0 0 62.87 63">
  <metadata><?xpacket begin="﻿" id="W5M0MpCehiHzreSzNTczkc9d"?>
<x:xmpmeta xmlns:x="adobe:ns:meta/" x:xmptk="Adobe XMP Core 5.6-c142 79.160924, 2017/07/13-01:06:39        ">
   <rdf:RDF xmlns:rdf="http://www.w3.org/1999/02/22-rdf-syntax-ns#">
      <rdf:Description rdf:about=""/>
   </rdf:RDF>
</x:xmpmeta>
                                                                                                    
                                                                                                    
                                                                                                    
                                                                                                    
                                                                                                    
                                                                                                    
                                                                                                    
                                                                                                    
                                                                                                    
                                                                                                    
                                                                                                    
                                                                                                    
                                                                                                    
                                                                                                    
                                                                                                    
                                                                                                    
                                                                                                    
                                                                                                    
                                                                                                    
                                                                                                    
                           
<?xpacket end="w"?></metadata>
<defs>
    <style>
      .cls-1 {
        fill: #fff;
        fill-rule: evenodd;
      }
    </style>
  </defs>
  <path id="linked-in" class="cls-1" d="M1854.57,10162a31.5,31.5,0,1,0,31.43,31.5A31.471,31.471,0,0,0,1854.57,10162Zm0,58.1a26.6,26.6,0,1,1,26.52-26.6A26.552,26.552,0,0,1,1854.57,10220.1Zm-5.88-10.9h5.89v-13.7a4.984,4.984,0,0,1,5.89-4h0c2.5,0.2,3.85,3.5,3.93,4v13.7l5.87,0.1v-16.4c-0.21-2.4-1.38-7.2-7.83-7.3-5.05.1-7.53,3.8-7.86,3.9v-3.9h-5.89v23.6Zm-9.83,0h5.9v-23.6h-5.9v23.6Zm2.95-31.5a3.012,3.012,0,0,0-2.95,3,2.95,2.95,0,0,0,5.9,0A3.012,3.012,0,0,0,1841.81,10177.7Z" transform="translate(-1823.13 -10162)"/>
</svg>
