<svg xmlns="http://www.w3.org/2000/svg" width="62.85" height="63" viewBox="0 0 62.85 63">
  <metadata><?xpacket begin="﻿" id="W5M0MpCehiHzreSzNTczkc9d"?>
<x:xmpmeta xmlns:x="adobe:ns:meta/" x:xmptk="Adobe XMP Core 5.6-c142 79.160924, 2017/07/13-01:06:39        ">
   <rdf:RDF xmlns:rdf="http://www.w3.org/1999/02/22-rdf-syntax-ns#">
      <rdf:Description rdf:about=""/>
   </rdf:RDF>
</x:xmpmeta>
                                                                                                    
                                                                                                    
                                                                                                    
                                                                                                    
                                                                                                    
                                                                                                    
                                                                                                    
                                                                                                    
                                                                                                    
                                                                                                    
                                                                                                    
                                                                                                    
                                                                                                    
                                                                                                    
                                                                                                    
                                                                                                    
                                                                                                    
                                                                                                    
                                                                                                    
                                                                                                    
                           
<?xpacket end="w"?></metadata>
<defs>
    <style>
      .cls-1 {
        fill: #fff;
        fill-rule: evenodd;
      }
    </style>
  </defs>
  <path id="twitter" class="cls-1" d="M1773.02,10162a31.5,31.5,0,1,0,31.43,31.5A31.471,31.471,0,0,0,1773.02,10162Zm0,58.1a26.6,26.6,0,1,1,26.52-26.6A26.552,26.552,0,0,1,1773.02,10220.1Zm15.71-37.1a9.811,9.811,0,0,1-3.6,1.1,6.956,6.956,0,0,0,2.71-3.8,9.218,9.218,0,0,1-4.05,1.6h0a6.055,6.055,0,0,0-4.69-2.2,6.733,6.733,0,0,0-6.48,7,7.2,7.2,0,0,0,.17,1.6h0a18.48,18.48,0,0,1-13.74-7.3,7.391,7.391,0,0,0,1.97,9.3,4.269,4.269,0,0,1-2.84-.8,6.711,6.711,0,0,0,5.01,6.8,4.274,4.274,0,0,1-2.7.2c0.2,2.1,2.87,4.8,5.79,4.8a10.293,10.293,0,0,1-8.98,2.9,18.916,18.916,0,0,0,10.14,3.1c10.47,0,18.59-9.2,18.15-20.5h0v-0.2A11.053,11.053,0,0,0,1788.73,10183Z" transform="translate(-1741.59 -10162)"/>
</svg>
