<svg xmlns="http://www.w3.org/2000/svg" width="15" height="20" viewBox="0 0 15 20">
  <metadata><?xpacket begin="﻿" id="W5M0MpCehiHzreSzNTczkc9d"?>
<x:xmpmeta xmlns:x="adobe:ns:meta/" x:xmptk="Adobe XMP Core 5.6-c142 79.160924, 2017/07/13-01:06:39        ">
   <rdf:RDF xmlns:rdf="http://www.w3.org/1999/02/22-rdf-syntax-ns#">
      <rdf:Description rdf:about=""/>
   </rdf:RDF>
</x:xmpmeta>
                                                                                                    
                                                                                                    
                                                                                                    
                                                                                                    
                                                                                                    
                                                                                                    
                                                                                                    
                                                                                                    
                                                                                                    
                                                                                                    
                                                                                                    
                                                                                                    
                                                                                                    
                                                                                                    
                                                                                                    
                                                                                                    
                                                                                                    
                                                                                                    
                                                                                                    
                                                                                                    
                           
<?xpacket end="w"?></metadata>
<defs>
    <style>
      .cls-1 {
        fill: #333;
        fill-rule: evenodd;
      }
    </style>
  </defs>
  <path class="cls-1" d="M328,2898.75a7.506,7.506,0,1,0-15,0,7.905,7.905,0,0,0,1.054,3.96h0a0.034,0.034,0,0,0,.012.02c0.01,0.02.021,0.04,0.032,0.06a66.881,66.881,0,0,0,6.4,8.21,66.983,66.983,0,0,0,6.4-8.21c0.011-.02.022-0.04,0.032-0.06a0.034,0.034,0,0,0,.012-0.02h0A7.9,7.9,0,0,0,328,2898.75Zm-7.5,4.21a4.212,4.212,0,1,1,4.075-4.21A4.141,4.141,0,0,1,320.5,2902.96Z" transform="translate(-313 -2891)"/>
</svg>
